<svg version="1.1" id="Layer_1" xmlns="http://www.w3.org/2000/svg" xmlns:xlink="http://www.w3.org/1999/xlink" x="0px" y="0px" width="100%" viewBox="0 0 500 500" xml:space="preserve">

<path fill="#111010" opacity="1.000000" stroke="none" d="
M3.042155,263.582275 
	C2.585065,263.659943 2.127976,263.737640 1.335444,263.907654 
	C1.000000,261.958344 1.000000,259.916656 1.000000,257.437500 
	C2.474408,256.248749 3.948817,255.497482 5.655250,255.051331 
	C4.938902,258.098389 3.990530,260.840332 3.042155,263.582275 
z" data-index="1"></path>
<path fill="#CC2229" opacity="1.000000" stroke="none" d="
M454.852997,325.527130 
	C454.822357,327.220276 454.791748,328.913422 454.378723,330.465088 
	C453.642883,329.641693 453.289490,328.959778 452.936127,328.277832 
	C452.266510,328.811981 451.164703,329.242065 451.006378,329.899384 
	C450.481750,332.077545 450.668701,334.471008 449.924011,336.545410 
	C443.273865,355.069916 434.148682,372.302307 421.754791,387.619141 
	C415.206390,395.711945 407.937714,403.221985 400.692383,411.142822 
	C384.374237,424.598663 367.550323,436.555359 348.087616,444.526276 
	C327.496765,452.959198 306.336060,458.532532 283.994354,458.975739 
	C276.834045,459.117767 269.665863,458.895264 262.507660,459.083160 
	C260.992920,459.122955 259.506104,460.226929 258.006409,460.840546 
	C257.557556,460.890961 257.108734,460.941376 256.268890,460.544189 
	C254.534103,459.397186 253.254272,458.299347 251.834778,458.071442 
	C247.141205,457.317749 242.232758,457.469940 237.702164,456.211273 
	C221.544281,451.722382 205.161667,447.425201 190.550735,439.032135 
	C178.699509,432.224365 167.531860,424.152802 156.432373,416.128143 
	C141.190460,405.108673 129.759537,390.495148 119.492363,374.942780 
	C110.445419,361.238770 103.360649,346.580536 98.353508,330.912567 
	C97.974228,329.725800 96.263054,328.964691 95.170998,328.005707 
	C94.522079,325.091492 93.873154,322.177307 93.323341,318.610962 
	C93.587807,317.524170 93.753159,317.089508 94.196518,316.855957 
	C95.091576,317.347870 95.708633,317.638672 96.342422,318.069458 
	C96.359146,318.209412 96.601326,318.343872 96.601326,318.343872 
	C96.601326,318.343872 96.741753,318.105499 97.115585,318.245270 
	C98.014320,318.443359 98.539207,318.501678 99.366837,318.712341 
	C100.116859,318.899200 100.564148,318.933685 101.399460,319.079254 
	C105.717957,319.645569 107.869194,317.573944 109.269943,313.804932 
	C109.563858,312.029633 109.615463,310.541748 109.703613,308.677826 
	C109.602188,307.823700 109.464226,307.345612 109.393814,306.689301 
	C109.410149,306.240631 109.264221,306.038391 109.025269,305.570190 
	C108.887642,304.815948 108.748344,304.395874 108.619156,303.742645 
	C108.537560,303.194275 108.352699,302.949310 108.073700,302.575012 
	C108.072701,302.375427 107.876541,302.027802 107.864235,301.762695 
	C107.768593,301.341492 107.685249,301.185425 107.677330,300.721436 
	C107.822823,300.214142 107.892906,300.014771 108.213547,299.764038 
	C108.729454,299.504639 108.994812,299.296631 109.452950,299.096802 
	C109.645737,299.105011 109.991699,298.934021 110.319191,298.949677 
	C111.426826,298.637421 112.206970,298.309509 113.356979,297.956848 
	C114.182770,297.752533 114.638695,297.572968 115.275192,297.434692 
	C115.716751,297.409576 115.898781,297.251862 116.000931,297.001434 
	C116.000000,297.000000 116.002357,297.002625 116.325363,297.015015 
	C117.401863,296.668732 118.155365,296.310028 119.207733,295.901062 
	C119.681648,295.749878 119.856682,295.648987 120.231354,295.548615 
	C120.695587,295.440796 120.873573,295.251068 121.300415,294.896301 
	C127.798767,291.118530 133.961639,287.424408 140.231277,283.666321 
	C141.619568,291.812714 142.875336,299.181396 144.337677,307.762207 
	C151.253067,303.484070 157.205811,299.801483 163.094925,296.063232 
	C163.031281,296.007599 163.118286,296.151917 163.455765,296.126343 
	C165.193481,295.584778 166.593735,295.068848 168.377670,294.503448 
	C203.004272,276.882782 237.247192,259.311615 271.842712,241.882538 
	C274.181488,242.743164 276.516663,244.484924 278.076447,243.952988 
	C280.773407,243.033264 281.813934,240.321671 280.716827,237.137238 
	C295.863129,229.338913 310.689240,221.778351 325.464539,214.119659 
	C338.892090,207.159576 352.264313,200.092758 365.984558,193.009567 
	C369.922394,191.164307 373.536621,189.382477 377.456757,187.449814 
	C376.177246,185.887863 375.490417,184.963806 374.717468,184.118439 
	C356.482666,164.174271 334.216064,150.946213 308.112152,144.071609 
	C306.603149,143.674194 305.240662,142.720291 303.853088,141.645294 
	C302.603088,137.776321 301.309998,134.287415 299.976990,130.443222 
	C298.652191,126.842491 297.367310,123.597054 296.409363,120.201523 
	C297.991486,119.251694 299.324219,118.550056 300.485687,117.631821 
	C302.901794,115.721680 305.328186,113.620514 302.971680,110.204559 
	C300.731415,106.957092 298.014099,107.843376 295.174133,109.570099 
	C293.576447,110.541512 291.730988,111.105431 289.961243,111.512131 
	C288.129517,108.961578 286.333649,106.751801 284.657166,104.165688 
	C285.251251,99.196320 285.725922,94.603287 286.571960,90.015961 
	C293.635071,90.592354 300.325439,91.183395 307.023712,91.663818 
	C307.309357,91.684296 307.668427,90.681015 307.993286,90.154655 
	C308.442169,90.104477 308.891052,90.054298 309.684998,90.460861 
	C310.774170,91.606781 311.420105,92.708191 312.279572,92.912872 
	C315.758667,93.741447 319.431976,93.904739 322.801422,95.017014 
	C336.206879,99.442253 349.927582,103.273338 361.965546,110.925827 
	C372.923126,117.891510 383.473267,125.495865 394.293976,132.681671 
	C395.994415,133.810898 398.177490,134.213303 400.137421,134.951782 
	C424.928070,156.943481 442.884827,183.496078 453.438049,214.963455 
	C454.214386,217.278244 454.538757,219.744598 454.848236,222.836975 
	C444.831268,228.720016 435.151215,234.136536 425.193176,238.981659 
	C421.117126,240.964859 416.508240,242.226212 412.009979,242.822998 
	C409.465179,243.160629 406.653107,241.483673 403.961395,240.714111 
	C403.968506,240.080276 403.975647,239.446457 403.982788,238.812622 
	C399.229767,241.684799 394.476776,244.556976 389.343323,247.412430 
	C374.334900,254.910980 359.706940,262.426239 344.733582,269.982910 
	C342.826599,270.953583 341.265045,271.882843 339.360870,272.883484 
	C338.257568,273.273163 337.470856,273.541016 336.739838,273.917053 
	C302.685211,291.434753 268.622223,308.936310 234.592651,326.502594 
	C223.655746,332.148315 212.808411,337.967590 201.561356,343.791138 
	C191.258102,348.907379 181.313568,353.939911 170.833328,359.243561 
	C173.364044,362.106659 175.174088,364.238312 177.073486,366.287109 
	C182.151871,371.764862 187.231812,377.242767 192.435394,382.599976 
	C192.882950,383.060699 194.250992,382.627350 195.554077,382.759216 
	C241.900604,414.247009 290.069519,417.835663 339.333954,392.162903 
	C373.308411,374.458038 395.054474,345.947906 405.596954,308.665283 
	C407.324799,308.065063 408.789062,307.760559 410.202423,307.299866 
	C418.732269,304.519623 426.066010,305.692566 433.238831,311.823914 
	C438.805634,316.582428 445.774567,319.697968 452.105377,323.568146 
	C453.062714,324.153320 453.939148,324.870819 454.852997,325.527130 
z" data-index="2" style="opacity: 1;"></path>
<path fill="#7A3D3F" opacity="1.000000" stroke="none" d="
M284.537781,104.542038 
	C286.333649,106.751801 288.129517,108.961578 290.072937,111.851501 
	C292.174469,115.138313 294.128448,117.744972 296.082428,120.351624 
	C297.367310,123.597054 298.652191,126.842491 299.745209,130.683167 
	C300.406433,134.866684 301.259521,138.454987 302.080017,142.503693 
	C302.318451,149.579422 302.589478,156.194702 302.533752,162.935013 
	C302.088593,164.718765 301.970184,166.377502 301.810791,168.410202 
	C301.075745,171.474579 300.381683,174.165009 299.359558,176.977325 
	C294.336273,191.775604 285.461456,203.888184 275.083099,214.862335 
	C277.146423,215.971802 278.630737,216.769913 279.979919,217.851059 
	C277.207489,220.400879 274.570190,222.667679 271.581848,224.971252 
	C268.777588,226.715271 266.324432,228.422501 263.521484,230.167603 
	C233.081573,246.146454 195.981812,241.614792 171.394470,219.098618 
	C168.783249,216.707321 165.962540,214.544754 163.184998,211.909500 
	C161.395599,209.334183 159.660202,207.125473 157.949890,204.566574 
	C156.637909,202.085800 155.300842,199.955185 153.900177,197.497940 
	C153.511719,196.120193 153.186874,195.069077 153.275635,194.012909 
	C156.689972,194.183075 157.656052,192.872864 156.532349,190.077850 
	C154.696289,185.510956 151.983490,181.095032 151.187943,176.355682 
	C149.779373,167.964447 149.532211,159.378265 148.840042,150.525253 
	C148.865616,149.472992 148.850174,148.769119 148.879059,147.785675 
	C148.901215,147.318665 148.879059,147.131256 148.897064,146.521454 
	C150.895691,138.524643 152.783707,130.930908 154.846451,123.384949 
	C155.704071,120.247566 156.934479,117.212097 157.995361,114.130280 
	C162.258392,108.966988 166.521439,103.803696 171.291367,98.328171 
	C174.255081,95.628410 176.711899,93.240883 179.168716,90.853348 
	C181.871979,89.628616 184.575241,88.403885 187.671432,87.384094 
	C189.400299,89.423805 190.736237,91.258560 192.094070,93.458450 
	C191.291748,94.941032 190.530823,96.112343 189.633057,97.167191 
	C183.834961,103.979683 177.007584,110.169846 175.715302,119.956726 
	C167.963974,124.392952 167.757690,130.827545 174.887451,135.459244 
	C173.909271,145.565018 179.272446,152.461746 185.020035,159.588791 
	C185.652222,171.684402 193.928314,176.607132 207.178040,173.272018 
	C211.304276,174.403946 215.154724,175.250565 218.954742,176.473724 
	C216.796494,185.924820 214.688690,194.999374 212.289337,205.329056 
	C215.917923,203.622055 219.798218,208.359344 220.722290,203.454376 
	C222.422028,194.432159 222.961853,185.191437 224.206329,175.932373 
	C224.708908,175.627701 224.898132,175.365845 225.218414,174.750885 
	C230.712891,172.269180 236.144119,170.378296 241.177887,167.731476 
	C243.236496,166.649048 244.435226,163.931244 246.011154,161.978149 
	C245.997147,161.998871 245.956085,162.027451 246.323975,162.011444 
	C248.082718,161.211411 249.813919,160.727798 250.812027,159.597061 
	C261.308472,147.705948 264.566193,134.004684 260.283875,118.724800 
	C259.429413,115.675972 257.448212,112.942909 256.450775,109.993454 
	C258.902405,109.919403 260.894897,109.822235 262.876373,109.929436 
	C270.657043,110.350380 277.974579,108.981903 284.537781,104.542038 
M263.640350,168.882370 
	C257.959839,172.810928 255.408264,179.725647 257.416321,185.749268 
	C259.538330,192.114685 265.318298,196.100906 272.287476,196.005356 
	C278.224243,195.923965 285.048187,190.611862 286.579529,184.755966 
	C288.073364,179.043396 286.335724,174.231567 281.936737,170.489090 
	C276.572418,165.925308 270.531738,165.895325 263.640350,168.882370 
M277.809662,114.095184 
	C276.479004,114.061302 275.145905,114.067802 273.818176,113.986275 
	C269.082703,113.695511 266.556580,116.342827 264.780243,120.371460 
	C262.871460,124.700516 264.372467,128.419739 267.115997,131.384064 
	C269.749512,134.229507 273.331726,135.646347 277.481628,134.037750 
	C281.954681,132.303894 285.502777,129.635223 285.922150,124.580704 
	C286.357971,119.327568 282.752350,116.527176 277.809662,114.095184 
M186.634369,192.658020 
	C186.757935,191.677017 186.991394,190.695526 186.987106,189.715088 
	C186.960663,183.675217 182.182602,178.909531 176.297836,178.995346 
	C169.591217,179.093124 165.970825,182.823624 165.993164,189.613373 
	C166.015137,196.292892 169.936539,200.772964 176.477081,199.713409 
	C179.997971,199.143005 183.034195,195.580765 186.634369,192.658020 
M249.093674,214.351547 
	C250.830261,211.649933 250.396179,208.914764 247.791748,207.519730 
	C245.602905,206.347336 242.313324,205.381363 240.331223,206.232986 
	C238.622314,206.967224 237.364960,210.358475 237.254700,212.640137 
	C237.181778,214.148941 239.445053,217.033829 240.739792,217.078903 
	C243.322983,217.168777 245.959427,215.728302 249.093674,214.351547 
z" data-index="3" style="opacity: 1;"></path>
<path fill="#332D2A" opacity="1.000000" stroke="none" d="
M283.030914,34.834892 
	C277.798340,38.627457 272.470154,42.298100 267.388885,46.283550 
	C265.769348,47.553806 263.632904,49.461452 266.688293,52.422226 
	C269.369293,61.799446 270.259216,70.915787 265.896301,79.050392 
	C262.338379,85.684151 257.706726,92.308647 251.980316,97.033333 
	C247.404831,100.808426 240.489929,101.789581 234.561234,103.861626 
	C232.344650,104.636307 229.980499,104.988739 227.285080,105.458008 
	C221.537933,103.968460 216.189316,102.554596 211.159149,101.065117 
	C211.444229,100.231178 211.696091,99.002670 211.335419,98.783875 
	C203.924194,94.287888 198.563782,88.139572 195.463364,79.989418 
	C194.531036,77.538574 193.145203,75.260262 191.967102,72.902916 
	C193.978317,65.038162 198.716766,58.736752 204.997849,54.172787 
	C211.517487,49.435471 218.991638,46.011765 226.403214,41.812519 
	C225.186920,34.451996 220.358658,28.165108 214.146439,22.002029 
	C215.777802,20.856195 217.448120,20.412167 219.118439,19.968136 
	C226.754425,25.309860 229.477890,33.688122 232.173798,40.874428 
	C241.625916,42.614761 250.483109,44.245556 260.159058,46.027100 
	C265.456085,39.445755 271.839600,32.042431 282.539246,30.316101 
	C282.964142,32.065105 282.997528,33.450001 283.030914,34.834892 
M247.998169,64.590073 
	C247.918625,54.230457 241.110275,47.907551 230.011993,48.015427 
	C220.538635,48.107510 212.641556,54.493206 212.744736,65.500305 
	C212.836792,75.318504 221.281601,82.720329 228.459900,82.903076 
	C239.932770,83.195145 247.985245,75.780334 247.998169,64.590073 
z" data-index="4" style="opacity: 1;"></path>
<path fill="#030101" opacity="1.000000" stroke="none" d="
M152.862045,194.017960 
	C153.186874,195.069077 153.511719,196.120193 153.584503,197.632721 
	C147.183105,203.635620 139.660172,208.249451 135.163651,214.907242 
	C125.076363,229.842987 110.116516,238.890594 96.466705,249.972229 
	C96.457359,250.673813 96.744781,251.330444 97.413345,251.989761 
	C99.751747,252.880661 101.709015,253.768875 103.666283,254.657104 
	C103.535065,255.278229 103.403839,255.899368 103.272614,256.520508 
	C101.445641,256.520508 99.484398,256.955841 97.816101,256.441345 
	C92.122932,254.685562 86.227066,253.194534 80.966576,250.509308 
	C69.723488,244.770218 59.005814,237.997192 47.734249,232.320099 
	C39.469299,228.157364 30.692335,224.997452 22.081337,221.545853 
	C20.107353,220.754608 17.871174,220.230209 15.767981,220.268021 
	C14.004886,220.299728 12.259744,221.329987 10.506651,221.918121 
	C11.240397,223.434555 11.678994,225.229080 12.780916,226.398636 
	C14.233185,227.940048 16.256248,228.927612 17.946245,230.264114 
	C23.019287,234.276031 28.275814,238.099030 32.996132,242.494659 
	C35.175209,244.523834 36.274097,247.712997 37.862747,250.376236 
	C37.331642,250.791367 36.800537,251.206497 36.269436,251.621628 
	C33.586548,249.583572 30.903664,247.545502 28.013029,245.349625 
	C22.617224,248.755508 17.081713,252.111435 11.723163,255.729431 
	C10.388778,256.630371 8.486355,259.058655 8.814632,259.608063 
	C9.787345,261.235992 11.623391,263.140961 13.338360,263.379242 
	C17.915474,264.015198 22.618078,264.115906 27.248236,263.913391 
	C33.718414,263.630402 38.399612,266.356323 41.568642,271.751709 
	C40.909527,272.247620 40.658482,272.462341 40.061256,272.580872 
	C37.998665,271.522186 36.282249,270.559723 35.008156,269.845306 
	C30.928055,274.602692 26.973677,279.049652 23.252127,283.683563 
	C22.455460,284.675537 22.004570,286.484985 22.332638,287.654724 
	C22.559427,288.463318 24.467833,289.401703 25.505997,289.278778 
	C30.371693,288.702667 35.196213,287.778809 39.813721,287.015808 
	C39.571316,284.208313 39.404385,282.274872 39.120178,278.983185 
	C47.726101,285.031433 55.124603,290.231079 62.527241,295.433655 
	C65.764542,290.459656 66.902000,290.058228 71.557274,292.744568 
	C78.891815,296.977020 86.345505,300.996155 91.685143,308.015289 
	C93.504486,310.406952 96.345314,312.453156 99.152069,313.565399 
	C103.897385,315.445831 106.137054,313.321686 105.252609,308.270081 
	C104.825272,305.829254 103.777641,303.503876 103.197685,301.081512 
	C102.049667,296.286469 103.414566,292.260406 107.406738,287.700317 
	C107.406738,291.260651 107.406738,293.450684 107.406738,297.180511 
	C113.799820,293.838928 119.290894,290.904327 124.839279,288.082397 
	C135.927811,282.442749 146.937912,276.626984 158.225357,271.414429 
	C161.387817,269.953979 165.398102,270.259277 169.036346,269.959045 
	C169.756943,269.899567 170.554749,270.775818 171.316956,271.220581 
	C170.818130,271.983368 170.490311,273.095947 169.786743,273.439880 
	C168.035782,274.295807 166.113693,274.801636 163.150925,275.834961 
	C164.786713,282.157166 166.390350,288.355042 167.993988,294.552917 
	C166.593735,295.068848 165.193481,295.584778 163.415863,295.804291 
	C162.872528,294.920959 162.706573,294.334076 162.540619,293.747192 
	C162.176346,293.984863 161.812073,294.222534 161.447815,294.460236 
	C162.018066,295.013092 162.588318,295.565979 163.158569,296.118866 
	C157.205811,299.801483 151.253067,303.484070 144.337677,307.762207 
	C142.875336,299.181396 141.619568,291.812714 140.231277,283.666321 
	C133.961639,287.424408 127.798767,291.118530 121.117615,294.941803 
	C120.359604,295.169922 120.170403,295.328949 120.031723,295.548065 
	C119.856682,295.648987 119.681648,295.749878 118.877441,295.903107 
	C117.499634,296.304474 116.750992,296.653534 116.002350,297.002625 
	C116.002357,297.002625 116.000000,297.000000 115.831726,297.021332 
	C115.439537,297.103973 115.249931,297.220886 115.094627,297.393402 
	C114.638695,297.572968 114.182770,297.752533 113.022202,297.950195 
	C111.542274,298.290192 110.766983,298.612091 109.991699,298.934021 
	C109.991699,298.934021 109.645737,299.105011 109.190979,299.125153 
	C108.478470,299.368652 108.220726,299.592041 107.962982,299.815430 
	C107.892906,300.014771 107.822823,300.214142 107.570343,300.849670 
	C107.550804,301.533112 107.713676,301.780457 107.876541,302.027802 
	C107.876541,302.027802 108.072701,302.375427 108.083969,302.806396 
	C108.169762,303.550873 108.341026,303.796997 108.609039,303.975769 
	C108.748344,304.395874 108.887642,304.815948 109.029228,305.744690 
	C109.074074,306.484802 109.172325,306.689545 109.326263,306.867523 
	C109.464226,307.345612 109.602188,307.823700 109.489334,308.970825 
	C109.168228,311.123993 109.097931,312.608185 109.027634,314.092346 
	C107.869194,317.573944 105.717957,319.645569 101.274200,318.868652 
	C100.195305,318.551361 99.629707,318.555664 99.064102,318.559998 
	C98.539207,318.501678 98.014320,318.443359 97.048203,318.216492 
	C96.606987,318.047943 96.325699,317.929504 96.325699,317.929504 
	C95.708633,317.638672 95.091576,317.347870 94.063034,316.619690 
	C92.877068,315.756622 92.102570,315.330902 91.328072,314.905212 
	C91.328072,314.905212 91.090424,314.943176 90.986984,314.637695 
	C90.701256,314.105194 90.465286,313.976898 90.175613,313.947388 
	C90.175613,313.947388 90.036278,313.964722 89.982498,313.717865 
	C89.620628,313.303040 89.312553,313.135071 89.004478,312.967072 
	C84.197708,308.897583 79.390938,304.828094 74.233055,300.267334 
	C73.249893,299.865753 72.617844,299.955444 71.985794,300.045105 
	C70.237953,300.186859 68.490120,300.328583 66.218155,300.042480 
	C64.870186,299.558197 64.046341,299.501709 63.222492,299.445251 
	C62.330238,299.145020 61.437988,298.844757 60.154999,298.028717 
	C56.868500,295.999115 53.972736,294.485352 51.076973,292.971558 
	C50.857655,292.928009 50.638329,292.884430 50.152191,292.300049 
	C49.247047,291.510040 48.608719,291.260834 47.970390,291.011597 
	C46.545837,290.594208 45.121284,290.176819 43.173527,289.573486 
	C42.086391,289.703094 41.522457,290.018677 40.958527,290.334290 
	C39.539291,290.859650 38.120056,291.385010 36.190022,291.664062 
	C35.106358,291.711975 34.533493,292.006226 33.960632,292.300446 
	C31.876183,292.815857 29.791733,293.331268 27.054562,293.550018 
	C24.626644,293.407379 22.851446,293.561371 21.076244,293.715363 
	C19.451052,292.354523 17.825861,290.993683 16.431412,289.052368 
	C17.107672,286.643341 17.553190,284.814819 17.998711,282.986298 
	C19.522713,281.415588 21.046717,279.844910 23.210451,278.122253 
	C25.246960,276.351593 26.643738,274.732910 28.040516,273.114227 
	C28.235844,271.199768 28.431171,269.285278 28.038485,266.908936 
	C19.442928,265.583618 11.435386,264.720154 3.427844,263.856659 
	C3.427844,263.856659 3.105489,263.901520 3.073823,263.741882 
	C3.990530,260.840332 4.938902,258.098389 5.961215,255.046997 
	C6.146455,254.550980 6.257756,254.364441 6.954486,254.099060 
	C8.040470,253.577087 8.541023,253.133972 9.041578,252.690872 
	C9.167971,252.513901 9.294363,252.336929 9.990173,252.106262 
	C11.051908,251.672073 11.544222,251.291595 12.036537,250.911118 
	C12.409660,250.609436 12.782784,250.307755 13.792835,250.010345 
	C14.966754,249.611099 15.503748,249.207581 16.040745,248.804077 
	C16.178463,248.613464 16.316179,248.422852 17.152241,248.121826 
	C19.049118,247.456650 20.266960,246.939774 21.442963,246.340775 
	C27.662563,243.172806 27.798185,241.672165 22.307358,237.550613 
	C17.827024,234.187576 13.419969,230.724380 8.884029,227.438675 
	C4.440004,224.219559 4.157939,220.776947 7.936832,216.894196 
	C8.389318,216.671860 8.841803,216.449524 9.933065,216.453979 
	C12.360927,216.525406 14.150010,216.370026 15.939094,216.214661 
	C23.143545,218.186295 30.347996,220.157928 38.043480,222.643036 
	C42.589802,224.800858 46.645081,226.445190 50.700363,228.089523 
	C51.603161,228.458588 52.505959,228.827637 53.796574,229.736816 
	C56.914021,231.466751 59.643650,232.656525 62.373276,233.846298 
	C63.406849,234.307831 64.440422,234.769363 65.829865,235.761719 
	C67.517143,236.836609 68.848534,237.380646 70.179932,237.924698 
	C73.661942,239.727173 77.143951,241.529633 80.965149,243.675446 
	C81.304337,244.018784 81.652802,244.063644 81.652802,244.063644 
	C81.952255,244.154022 82.251709,244.244415 82.936630,244.690338 
	C83.322105,245.045868 83.549080,245.039505 83.549080,245.039505 
	C83.821220,245.122513 84.093361,245.205536 84.791908,245.837784 
	C87.053680,247.138916 88.889053,247.890823 91.164070,248.495102 
	C91.895302,248.244705 92.186897,248.141922 92.560135,247.984619 
	C92.641785,247.930069 92.916969,247.657394 93.217331,247.444092 
	C96.407051,245.169601 99.296410,243.108414 102.366463,240.952728 
	C102.774254,240.695740 102.943428,240.486435 103.073479,240.155304 
	C103.092285,240.080322 103.245155,240.057144 103.411255,239.965088 
	C103.785561,239.718735 103.943565,239.523727 104.089371,239.198730 
	C104.127373,239.109421 104.314034,239.056168 104.447922,238.984604 
	C104.752434,238.796860 104.885414,238.647217 105.229767,238.209991 
	C110.720604,233.987244 115.962402,230.018585 121.375572,225.965195 
	C121.764877,225.735870 121.930099,225.545517 122.092255,225.212158 
	C122.141891,225.114899 122.348587,225.044357 122.489624,224.960907 
	C122.807228,224.741318 122.943024,224.572388 123.092636,224.258255 
	C123.147240,224.145844 123.372093,224.036713 123.513000,223.947311 
	C123.828308,223.712601 123.960770,223.535843 124.078598,223.231247 
	C124.105888,223.134827 124.287117,223.049240 124.450615,222.943481 
	C124.814674,222.662827 124.959961,222.450150 125.205559,221.892487 
	C131.996872,210.242126 141.013870,201.200134 152.200256,194.050140 
	C152.421371,194.059387 152.862045,194.017960 152.862045,194.017960 
M159.934357,283.440063 
	C159.854858,283.295898 159.804596,283.112518 159.684418,283.022949 
	C159.617310,282.972900 159.337372,283.050537 159.317612,283.118469 
	C159.004944,284.193268 158.718979,285.275818 158.426880,286.356628 
	C158.761826,286.434235 159.096756,286.511871 159.431702,286.589508 
	C159.613907,285.739349 159.796112,284.889160 159.934357,283.440063 
M158.700363,278.102203 
	C158.392166,277.875824 158.083984,277.649414 157.775803,277.423004 
	C157.985046,277.750763 158.194290,278.078522 158.700363,278.102203 
z" data-index="5"></path>
<path fill="#CB2229" opacity="1.000000" stroke="none" d="
M151.979126,194.040894 
	C141.013870,201.200134 131.996872,210.242126 125.010147,221.962250 
	C124.410995,222.510834 124.286987,222.747498 124.287117,223.049240 
	C124.287117,223.049240 124.105888,223.134827 123.905502,223.280792 
	C123.483521,223.569672 123.372520,223.772980 123.372093,224.036713 
	C123.372093,224.036713 123.147240,224.145844 122.919571,224.298126 
	C122.468849,224.585541 122.354408,224.783524 122.348587,225.044357 
	C122.348587,225.044357 122.141891,225.114899 121.894341,225.255676 
	C121.392624,225.542007 121.245094,225.759842 121.204193,226.049927 
	C115.962402,230.018585 110.720604,233.987244 105.062576,238.228516 
	C104.426620,238.620819 104.315857,238.805832 104.314034,239.056168 
	C104.314034,239.056168 104.127373,239.109421 103.894051,239.250610 
	C103.410919,239.544037 103.272392,239.765823 103.245155,240.057144 
	C103.245155,240.057144 103.092285,240.080322 102.866302,240.212372 
	C102.377945,240.506973 102.226433,240.741241 102.185768,241.047241 
	C99.296410,243.108414 96.407051,245.169601 93.080482,247.380005 
	C92.411179,247.641464 92.356255,247.811447 92.478493,248.039154 
	C92.186897,248.141922 91.895302,248.244705 91.143303,248.206055 
	C90.569489,247.506516 90.456085,246.948395 90.342682,246.390274 
	C90.015022,235.135727 93.433662,224.593155 97.092972,214.240372 
	C104.945045,192.025513 115.979309,171.529694 132.244415,153.433517 
	C135.692719,153.647507 138.694733,153.960571 141.495392,154.884201 
	C142.700119,155.281525 144.345749,156.954987 144.333145,158.031586 
	C144.185654,170.632812 147.393707,182.472504 151.979126,194.040894 
z" data-index="6"></path>
<path fill="#131111" opacity="1.000000" stroke="none" d="
M455.165833,325.254456 
	C453.939148,324.870819 453.062714,324.153320 452.105377,323.568146 
	C445.774567,319.697968 438.805634,316.582428 433.238831,311.823914 
	C426.066010,305.692566 418.732269,304.519623 410.202423,307.299866 
	C408.789062,307.760559 407.324799,308.065063 405.141571,308.601746 
	C395.291718,308.921234 386.183777,309.056610 377.077515,309.264801 
	C375.627319,309.297974 374.108887,309.437531 372.750641,309.903168 
	C363.614258,313.035522 354.200867,313.524811 344.682434,312.949615 
	C337.617645,312.522675 333.937927,307.107941 336.485535,300.436768 
	C337.769348,297.074951 339.757202,293.910553 341.834961,290.942657 
	C344.075104,287.742798 346.792450,284.877014 348.282928,283.088135 
	C345.212433,279.410431 342.457947,276.111267 339.703491,272.812134 
	C341.265045,271.882843 342.826599,270.953583 344.896912,270.274414 
	C348.111084,273.374054 350.816498,276.223633 353.345215,278.887054 
	C356.156677,276.902893 358.487305,275.258057 360.817963,273.613251 
	C361.385040,274.287018 361.952118,274.960785 362.519196,275.634552 
	C359.963470,278.185120 357.309753,280.645905 354.873749,283.306122 
	C350.651550,287.917053 346.065643,292.310730 342.564850,297.432892 
	C339.268799,302.255463 341.287964,305.864197 347.085236,307.344116 
	C348.364166,307.670654 349.703033,307.807037 351.023804,307.918060 
	C362.281494,308.864166 372.799469,305.717712 383.186707,301.977142 
	C387.789307,300.319702 392.312836,298.442688 396.872253,296.665375 
	C397.152191,297.159332 397.432098,297.653259 397.712036,298.147217 
	C394.300507,300.415924 390.888977,302.684631 387.107269,305.199554 
	C388.143524,305.539764 388.616821,305.867188 389.032776,305.805878 
	C394.877380,304.944031 401.062653,304.960205 406.480194,302.932800 
	C417.648010,298.753448 427.246338,299.772369 435.928101,308.233154 
	C438.660004,310.895508 441.649536,313.415649 444.888092,315.402924 
	C448.386292,317.549561 452.195404,319.384277 456.105896,320.579926 
	C457.983673,321.154083 460.407074,319.943726 462.583405,319.541534 
	C462.183502,317.525024 462.419189,314.980316 461.264618,313.590942 
	C457.783020,309.401306 453.858185,305.559357 449.914642,301.781738 
	C447.352936,299.327850 444.456787,297.223145 441.045624,294.414581 
	C443.629425,293.329498 445.106842,292.614685 446.646423,292.078430 
	C454.121063,289.474884 461.593994,289.773346 469.283783,291.442902 
	C474.257477,292.522797 479.523926,293.015656 484.589996,292.691071 
	C489.492188,292.376984 490.795898,288.835876 487.699921,284.953918 
	C485.784424,282.552216 483.278015,279.897217 480.510956,279.025574 
	C469.000336,275.399597 457.290009,272.407623 445.591919,269.166168 
	C444.956238,272.335144 444.527557,274.472107 444.016144,277.021545 
	C439.824829,272.848083 439.406982,268.007080 442.396393,263.055511 
	C449.200134,251.786011 459.335693,243.991455 469.837921,236.513138 
	C471.676971,235.203629 472.698303,232.745728 474.097229,230.818176 
	C471.752167,229.502991 469.515472,227.413666 467.034943,227.066528 
	C463.859619,226.622192 460.329803,227.080795 457.239197,228.057083 
	C452.986237,229.400528 448.966583,231.519012 444.908630,233.435989 
	C434.674988,238.270386 424.524719,243.284622 414.236572,247.998810 
	C410.579010,249.674774 406.619965,250.692841 402.278656,252.190582 
	C402.713379,250.019363 402.988586,248.644943 403.231995,247.429169 
	C398.578003,247.429169 394.150879,247.429169 389.723785,247.429169 
	C394.476776,244.556976 399.229767,241.684799 403.982788,238.812622 
	C403.975647,239.446457 403.968506,240.080276 403.961395,240.714111 
	C406.653107,241.483673 409.465179,243.160629 412.009979,242.822998 
	C416.508240,242.226212 421.117126,240.964859 425.193176,238.981659 
	C435.151215,234.136536 444.831268,228.720016 454.755798,223.360718 
	C456.360992,223.103622 457.832672,222.990402 459.306458,222.940155 
	C464.569031,222.760712 469.857666,222.212326 475.087921,222.551544 
	C479.863861,222.861313 482.272491,226.677963 480.115540,230.907425 
	C478.249695,234.566071 475.291718,237.888245 472.175842,240.631485 
	C468.528107,243.842972 464.186768,246.266586 459.757965,249.521606 
	C453.495728,254.248245 448.428192,259.172180 444.729462,266.440216 
	C451.130493,267.350800 456.655914,268.136810 462.181335,268.922821 
	C468.835052,270.872620 475.612396,272.488983 482.097534,274.893463 
	C486.188324,276.410126 490.073792,278.785370 493.628906,281.358978 
	C497.411346,284.097137 497.694336,288.567535 496.573975,292.599792 
	C495.505707,296.444641 491.753937,297.609253 488.174744,297.353180 
	C480.946899,296.836060 473.753815,295.832581 465.972290,294.691956 
	C464.616852,294.327576 463.835541,294.300964 463.054260,294.274353 
	C462.630127,294.266846 462.206024,294.259369 461.134460,294.096741 
	C457.097229,294.181305 453.707489,294.421021 450.317719,294.660767 
	C450.155396,295.340973 449.993103,296.021210 449.830780,296.701416 
	C453.143555,299.579803 456.456329,302.458191 459.769104,305.336578 
	C462.674408,308.202484 465.999451,310.759644 468.387543,314.006042 
	C472.057800,318.995300 469.993988,323.353760 463.844879,324.338104 
	C461.092316,324.778748 458.269562,324.780731 455.165833,325.254456 
z" data-index="7"></path>
<path fill="#0E0908" opacity="1.000000" stroke="none" d="
M227.683624,105.533691 
	C229.980499,104.988739 232.344650,104.636307 234.561234,103.861626 
	C240.489929,101.789581 247.404831,100.808426 251.980316,97.033333 
	C257.706726,92.308647 262.338379,85.684151 265.896301,79.050392 
	C270.259216,70.915787 269.369293,61.799446 267.014618,52.566669 
	C278.403839,60.658798 284.294373,72.397675 286.935730,86.029190 
	C287.002655,86.374535 286.488007,86.832581 286.149658,87.948044 
	C286.103363,89.108772 286.152008,89.559517 286.200623,90.010262 
	C285.725922,94.603287 285.251251,99.196320 284.657166,104.165695 
	C277.974579,108.981903 270.657043,110.350380 262.876373,109.929436 
	C260.894897,109.822235 258.902405,109.919403 256.026489,109.935471 
	C245.986526,108.476746 236.835083,107.005219 227.683624,105.533691 
z" data-index="8" style="opacity: 1;"></path>
<path fill="#CA1B22" opacity="1.000000" stroke="none" d="
M95.103882,328.389435 
	C96.263054,328.964691 97.974228,329.725800 98.353508,330.912567 
	C103.360649,346.580536 110.445419,361.238770 119.492363,374.942780 
	C129.759537,390.495148 141.190460,405.108673 156.432373,416.128143 
	C167.531860,424.152802 178.699509,432.224365 190.550735,439.032135 
	C205.161667,447.425201 221.544281,451.722382 237.702164,456.211273 
	C242.232758,457.469940 247.141205,457.317749 251.834778,458.071442 
	C253.254272,458.299347 254.534103,459.397186 255.936035,460.471191 
	C241.863052,459.806458 228.189713,456.443695 214.877167,451.870972 
	C193.898727,444.665070 174.767883,434.168793 157.363373,420.139038 
	C140.310608,406.392792 126.182167,390.261444 114.615593,371.914703 
	C106.161774,358.505402 99.720840,343.990356 95.103882,328.389435 
z" data-index="9"></path>
<path fill="#CA1B22" opacity="1.000000" stroke="none" d="
M258.444000,460.909058 
	C259.506104,460.226929 260.992920,459.122955 262.507660,459.083160 
	C269.665863,458.895264 276.834045,459.117767 283.994354,458.975739 
	C306.336060,458.532532 327.496765,452.959198 348.087616,444.526276 
	C367.550323,436.555359 384.374237,424.598663 400.926239,411.270325 
	C401.658386,411.540771 401.854797,411.831390 402.051147,412.122009 
	C391.840118,419.809601 382.032379,428.121307 371.325165,435.041199 
	C354.515076,445.905182 335.945892,453.047821 316.355408,457.180450 
	C307.951904,458.953186 299.369537,459.996735 290.819672,460.919128 
	C284.121094,461.641785 277.349609,461.851929 270.606232,461.932678 
	C266.702393,461.979431 262.790100,461.319458 258.444000,460.909058 
z" data-index="10"></path>
<path fill="#362C2C" opacity="1.000000" stroke="none" d="
M152.200256,194.050140 
	C147.393707,182.472504 144.185654,170.632812 144.333145,158.031586 
	C144.345749,156.954987 142.700119,155.281525 141.495392,154.884201 
	C138.694733,153.960571 135.692719,153.647507 132.367752,153.128189 
	C130.989395,151.096085 129.363510,149.032471 129.332504,146.945160 
	C129.318207,145.983383 132.326141,144.665390 134.147308,144.084503 
	C135.649139,143.605484 137.421417,143.974319 139.702087,144.333405 
	C141.857758,145.123688 143.385162,145.548004 144.921722,146.363358 
	C144.890457,149.376221 145.584549,151.308319 148.799026,150.873657 
	C149.532211,159.378265 149.779373,167.964447 151.187943,176.355682 
	C151.983490,181.095032 154.696289,185.510956 156.532349,190.077850 
	C157.656052,192.872864 156.689972,194.183075 153.275635,194.012909 
	C152.862045,194.017960 152.421371,194.059387 152.200256,194.050140 
z" data-index="11"></path>
<path fill="#CA1B22" opacity="1.000000" stroke="none" d="
M402.361542,411.988464 
	C401.854797,411.831390 401.658386,411.540771 401.228088,411.122620 
	C407.937714,403.221985 415.206390,395.711945 421.754791,387.619141 
	C434.148682,372.302307 443.273865,355.069916 449.924011,336.545410 
	C450.668701,334.471008 450.481750,332.077545 451.006378,329.899384 
	C451.164703,329.242065 452.266510,328.811981 452.936127,328.277832 
	C453.289490,328.959778 453.642883,329.641693 454.021179,330.695679 
	C450.259308,340.620911 447.295685,350.615601 442.470825,359.612122 
	C436.842987,370.105804 430.092560,380.109497 422.884888,389.609344 
	C416.852783,397.559814 409.461395,404.479004 402.361542,411.988464 
z" data-index="12"></path>
<path fill="#1E0F09" opacity="1.000000" stroke="none" d="
M191.625519,73.071396 
	C193.145203,75.260262 194.531036,77.538574 195.463364,79.989418 
	C198.563782,88.139572 203.924194,94.287888 211.335419,98.783875 
	C211.696091,99.002670 211.444229,100.231178 210.786835,101.031654 
	C204.088104,98.413643 198.080154,95.753479 192.072189,93.093315 
	C190.736237,91.258560 189.400299,89.423805 187.999512,87.248123 
	C189.051086,82.351433 190.167511,77.795654 191.625519,73.071396 
z" data-index="13" style="opacity: 1;"></path>
<path fill="#C91B22" opacity="1.000000" stroke="none" d="
M399.994446,134.638641 
	C398.177490,134.213303 395.994415,133.810898 394.293976,132.681671 
	C383.473267,125.495865 372.923126,117.891510 361.965546,110.925827 
	C349.927582,103.273338 336.206879,99.442253 322.801422,95.017014 
	C319.431976,93.904739 315.758667,93.741447 312.279572,92.912872 
	C311.420105,92.708191 310.774170,91.606781 310.017914,90.533798 
	C328.129730,93.746552 345.867432,98.963562 361.826843,108.213928 
	C375.090576,115.901833 387.219727,125.547218 399.994446,134.638641 
z" data-index="14" style="opacity: 1;"></path>
<path fill="#C6252C" opacity="1.000000" stroke="none" d="
M462.226990,268.508331 
	C456.655914,268.136810 451.130493,267.350800 444.729462,266.440216 
	C448.428192,259.172180 453.495728,254.248245 459.697693,249.876648 
	C460.844269,255.087875 461.662811,260.433716 462.269409,266.169922 
	C462.057434,266.560272 462.140533,266.443970 462.140533,266.443970 
	C462.184570,266.993927 462.228607,267.543884 462.226990,268.508331 
z" data-index="15"></path>
<path fill="#160B05" opacity="1.000000" stroke="none" d="
M218.976120,19.639000 
	C217.448120,20.412167 215.777802,20.856195 214.045013,21.682741 
	C211.701126,22.032259 209.289749,22.450279 207.174423,21.840799 
	C205.012100,21.217779 202.318390,20.019545 201.394058,18.263987 
	C200.616669,16.787527 201.380920,13.405935 202.687698,12.235472 
	C203.974228,11.083177 207.307327,10.762897 208.851028,11.642303 
	C212.462570,13.699718 215.540070,16.694590 218.976120,19.639000 
z" data-index="16"></path>
<path fill="#0C0908" opacity="1.000000" stroke="none" d="
M283.453033,34.895729 
	C282.997528,33.450001 282.964142,32.065105 282.927734,30.264347 
	C286.088257,28.627815 289.180206,26.821644 292.444214,26.422571 
	C294.192169,26.208866 296.982971,28.000401 297.913300,29.664192 
	C298.673462,31.023647 298.032593,34.396076 296.822540,35.324406 
	C295.216248,36.556698 292.438507,36.637493 290.190277,36.548916 
	C288.067627,36.465282 285.978851,35.521816 283.453033,34.895729 
z" data-index="17"></path>
<path fill="#111010" opacity="1.000000" stroke="none" d="
M7.796766,216.729446 
	C4.157939,220.776947 4.440004,224.219559 8.884029,227.438675 
	C13.419969,230.724380 17.827024,234.187576 22.307358,237.550613 
	C27.798185,241.672165 27.662563,243.172806 21.442963,246.340775 
	C20.266960,246.939774 19.049118,247.456650 17.492798,248.029907 
	C17.459923,247.675018 17.724037,247.213409 18.118773,246.941345 
	C25.188465,242.069229 25.269567,241.977875 18.283262,236.339859 
	C14.703302,233.450806 10.727461,231.058243 7.036998,228.298904 
	C0.174417,223.167801 0.309217,221.223465 7.796766,216.729446 
z" data-index="18"></path>
<path fill="#2F201E" opacity="1.000000" stroke="none" d="
M179.001175,90.547119 
	C176.711899,93.240883 174.255081,95.628410 171.446228,98.029205 
	C170.055145,95.753914 169.065155,93.441460 167.964172,91.183113 
	C166.701035,88.592194 166.476517,86.482597 169.618393,84.954430 
	C173.056183,83.282356 175.011078,85.268730 176.939865,87.504005 
	C177.660507,88.339172 178.207474,89.324188 179.001175,90.547119 
z" data-index="19"></path>
<path fill="#1F100B" opacity="1.000000" stroke="none" d="
M148.840042,150.525253 
	C145.584549,151.308319 144.890457,149.376221 145.230042,146.136703 
	C145.990936,143.000000 146.452652,140.480988 146.914368,137.961990 
	C150.370621,130.037903 153.826859,122.113815 157.639236,114.160004 
	C156.934479,117.212097 155.704071,120.247566 154.846451,123.384949 
	C152.783707,130.930908 150.895691,138.524643 148.748184,146.630768 
	C148.506760,147.273743 148.381195,147.422653 148.415497,147.489334 
	C148.522827,147.697998 148.690460,147.875610 148.834717,148.065262 
	C148.850174,148.769119 148.865616,149.472992 148.840042,150.525253 
z" data-index="20"></path>
<path fill="#B52E34" opacity="1.000000" stroke="none" d="
M460.007019,304.898804 
	C456.456329,302.458191 453.143555,299.579803 449.830780,296.701416 
	C449.993103,296.021210 450.155396,295.340973 450.317719,294.660767 
	C453.707489,294.421021 457.097229,294.181305 460.817139,294.119751 
	C460.846497,297.685638 460.545746,301.073334 460.007019,304.898804 
z" data-index="21"></path>
<path fill="#111010" opacity="1.000000" stroke="none" d="
M3.461209,264.178223 
	C11.435386,264.720154 19.442928,265.583618 27.737165,266.756439 
	C22.552822,267.189697 17.060154,267.648682 11.619790,267.297485 
	C8.862671,267.119476 6.199965,265.479065 3.461209,264.178223 
z" data-index="22"></path>
<path fill="#C91B22" opacity="1.000000" stroke="none" d="
M286.571960,90.015961 
	C286.152008,89.559517 286.103363,89.108772 286.109772,88.321465 
	C293.168945,88.656647 300.173126,89.328392 307.585266,90.077393 
	C307.668427,90.681015 307.309357,91.684296 307.023712,91.663818 
	C300.325439,91.183395 293.635071,90.592354 286.571960,90.015961 
z" data-index="23" style="opacity: 1;"></path>
<path fill="#111010" opacity="1.000000" stroke="none" d="
M50.521843,227.843170 
	C46.645081,226.445190 42.589802,224.800858 38.324829,222.927795 
	C42.191200,224.331650 46.267265,225.964233 50.521843,227.843170 
z" data-index="24"></path>
<path fill="#CB2229" opacity="1.000000" stroke="none" d="
M146.618286,138.104828 
	C146.452652,140.480988 145.990936,143.000000 145.220901,145.745651 
	C143.385162,145.548004 141.857758,145.123688 140.140015,144.414185 
	C142.073853,142.168533 144.198044,140.208084 146.618286,138.104828 
z" data-index="25"></path>
<path fill="#111010" opacity="1.000000" stroke="none" d="
M51.269600,293.223328 
	C53.972736,294.485352 56.868500,295.999115 59.901104,297.774902 
	C57.179371,296.516296 54.320801,294.995697 51.269600,293.223328 
z" data-index="26"></path>
<path fill="#111010" opacity="1.000000" stroke="none" d="
M62.181980,233.563232 
	C59.643650,232.656525 56.914021,231.466751 54.070198,229.983521 
	C56.634232,230.886780 59.312458,232.083481 62.181980,233.563232 
z" data-index="27"></path>
<path fill="#111010" opacity="1.000000" stroke="none" d="
M27.751705,273.276245 
	C26.643738,274.732910 25.246960,276.351593 23.518412,277.993683 
	C24.612061,276.490814 26.037477,274.964569 27.751705,273.276245 
z" data-index="28"></path>
<path fill="#111010" opacity="1.000000" stroke="none" d="
M17.683167,283.064758 
	C17.553190,284.814819 17.107672,286.643341 16.408789,288.709778 
	C13.657775,286.406891 15.336761,284.738312 17.683167,283.064758 
z" data-index="29"></path>
<path fill="#111010" opacity="1.000000" stroke="none" d="
M21.328642,293.944977 
	C22.851446,293.561371 24.626644,293.407379 26.655294,293.489258 
	C25.132843,293.874969 23.356939,294.024780 21.328642,293.944977 
z" data-index="30"></path>
<path fill="#111010" opacity="1.000000" stroke="none" d="
M15.632673,216.069366 
	C14.150010,216.370026 12.360927,216.525406 10.317505,216.437500 
	C11.817528,216.104187 13.571890,216.014130 15.632673,216.069366 
z" data-index="31"></path>
<path fill="#111010" opacity="1.000000" stroke="none" d="
M90.182983,246.730011 
	C90.456085,246.948395 90.569489,247.506516 90.703667,248.353683 
	C88.889053,247.890823 87.053680,247.138916 85.109627,246.122742 
	C86.675056,246.262238 88.349174,246.665985 90.182983,246.730011 
z" data-index="32"></path>
<path fill="#111010" opacity="1.000000" stroke="none" d="
M70.018845,237.656036 
	C68.848534,237.380646 67.517143,236.836609 66.070648,236.004181 
	C67.256287,236.272995 68.557022,236.830200 70.018845,237.656036 
z" data-index="33"></path>
<path fill="#111010" opacity="1.000000" stroke="none" d="
M91.484337,315.180328 
	C92.102570,315.330902 92.877068,315.756622 93.785042,316.418579 
	C93.753159,317.089508 93.587807,317.524170 93.420258,318.184235 
	C92.825577,317.424927 92.233093,316.440186 91.484337,315.180328 
z" data-index="34"></path>
<path fill="#111010" opacity="1.000000" stroke="none" d="
M8.775434,252.679428 
	C8.541023,253.133972 8.040470,253.577087 7.267683,254.009216 
	C7.500064,253.554825 8.004679,253.111404 8.775434,252.679428 
z" data-index="35"></path>
<path fill="#111010" opacity="1.000000" stroke="none" d="
M15.777603,248.776764 
	C15.503748,249.207581 14.966754,249.611099 14.157614,249.983780 
	C14.428467,249.551788 14.971466,249.150635 15.777603,248.776764 
z" data-index="36"></path>
<path fill="#111010" opacity="1.000000" stroke="none" d="
M72.227165,300.152588 
	C72.617844,299.955444 73.249893,299.865753 73.962425,300.013672 
	C73.518120,300.254211 72.993324,300.257141 72.227165,300.152588 
z" data-index="37"></path>
<path fill="#111010" opacity="1.000000" stroke="none" d="
M63.454681,299.655609 
	C64.046341,299.501709 64.870186,299.558197 65.867538,299.894348 
	C65.256317,300.071350 64.471596,299.968658 63.454681,299.655609 
z" data-index="38"></path>
<path fill="#111010" opacity="1.000000" stroke="none" d="
M11.790688,250.865692 
	C11.544222,251.291595 11.051908,251.672073 10.308983,252.037216 
	C10.553863,251.621338 11.049351,251.220810 11.790688,250.865692 
z" data-index="39"></path>
<path fill="#111010" opacity="1.000000" stroke="none" d="
M48.093338,291.242126 
	C48.608719,291.260834 49.247047,291.510040 49.965603,292.021301 
	C49.435978,292.013123 48.826130,291.742889 48.093338,291.242126 
z" data-index="40"></path>
<path fill="#111010" opacity="1.000000" stroke="none" d="
M34.220413,292.369446 
	C34.533493,292.006226 35.106358,291.711975 35.809566,291.617493 
	C35.453342,292.024353 34.966774,292.231384 34.220413,292.369446 
z" data-index="41"></path>
<path fill="#111010" opacity="1.000000" stroke="none" d="
M41.223198,290.394165 
	C41.522457,290.018677 42.086391,289.703094 42.788406,289.580475 
	C42.446941,290.000305 41.967403,290.227203 41.223198,290.394165 
z" data-index="42"></path>
<path fill="#B52E34" opacity="1.000000" stroke="none" d="
M463.249207,294.502716 
	C463.835541,294.300964 464.616852,294.327576 465.586548,294.584412 
	C464.997986,294.786774 464.221069,294.758942 463.249207,294.502716 
z" data-index="43"></path>
<path fill="#111010" opacity="1.000000" stroke="none" d="
M89.003777,313.160095 
	C89.312553,313.135071 89.620628,313.303040 89.981682,313.647644 
	C89.690796,313.667267 89.346931,313.510193 89.003777,313.160095 
z" data-index="44"></path>
<path fill="#111010" opacity="1.000000" stroke="none" d="
M90.233170,314.161255 
	C90.465286,313.976898 90.701256,314.105194 90.970505,314.518494 
	C90.724808,314.774139 90.469223,314.664246 90.233170,314.161255 
z" data-index="45"></path>
<path fill="#131111" opacity="1.000000" stroke="none" d="
M462.211456,266.470581 
	C462.140533,266.443970 462.057434,266.560272 462.042358,266.595276 
	C462.027252,266.630249 462.282379,266.497223 462.211456,266.470581 
z" data-index="46"></path>
<path fill="#111010" opacity="1.000000" stroke="none" d="
M83.553879,244.912033 
	C83.549080,245.039505 83.322105,245.045868 83.299072,244.988281 
	C83.276047,244.930710 83.326736,244.683197 83.326736,244.683197 
	C83.326736,244.683197 83.558678,244.784561 83.553879,244.912033 
z" data-index="47"></path>
<path fill="#111010" opacity="1.000000" stroke="none" d="
M81.639854,243.925003 
	C81.652802,244.063644 81.304337,244.018784 81.252663,243.943665 
	C81.200989,243.868546 81.381149,243.658340 81.381149,243.658340 
	C81.381149,243.658340 81.626907,243.786362 81.639854,243.925003 
z" data-index="48"></path>
<path fill="#FEFDFD" opacity="1.000000" stroke="none" d="
M339.360901,272.883484 
	C342.457947,276.111267 345.212433,279.410431 348.282928,283.088135 
	C346.792450,284.877014 344.075104,287.742798 341.834961,290.942657 
	C339.757202,293.910553 337.769348,297.074951 336.485535,300.436768 
	C333.937927,307.107941 337.617645,312.522675 344.682434,312.949615 
	C354.200867,313.524811 363.614258,313.035522 372.750641,309.903168 
	C374.108887,309.437531 375.627319,309.297974 377.077515,309.264801 
	C386.183777,309.056610 395.291718,308.921234 404.854462,308.825317 
	C395.054474,345.947906 373.308411,374.458038 339.333954,392.162903 
	C290.069519,417.835663 241.900604,414.247009 195.749603,382.476349 
	C202.747711,375.447205 209.912949,368.850830 217.237244,362.107971 
	C222.433762,364.152374 228.255478,366.637054 234.209106,368.750000 
	C255.173721,376.190277 276.548218,381.765717 298.975433,382.107239 
	C301.513458,382.145874 304.060669,381.583862 306.603607,381.300385 
	C306.573914,380.779205 306.544250,380.258026 306.514587,379.736816 
	C303.954163,379.278015 301.388733,378.845245 298.834137,378.356049 
	C284.311584,375.574890 269.533508,373.709167 255.333817,369.763336 
	C236.067490,364.409607 217.306030,357.335236 201.920090,343.707458 
	C212.808411,337.967590 223.655746,332.148315 234.592651,326.502594 
	C268.622223,308.936310 302.685211,291.434753 336.739838,273.917053 
	C337.470856,273.541016 338.257568,273.273163 339.360901,272.883484 
z" data-index="49"></path>
<path fill="#FDFCFC" opacity="1.000000" stroke="none" d="
M168.377655,294.503448 
	C166.390350,288.355042 164.786713,282.157166 163.150925,275.834961 
	C166.113693,274.801636 168.035782,274.295807 169.786743,273.439880 
	C170.490311,273.095947 170.818130,271.983368 171.316956,271.220581 
	C170.554749,270.775818 169.756943,269.899567 169.036346,269.959045 
	C165.398102,270.259277 161.387817,269.953979 158.225357,271.414429 
	C146.937912,276.626984 135.927811,282.442749 124.839279,288.082397 
	C119.290894,290.904327 113.799820,293.838928 107.406738,297.180511 
	C107.406738,293.450684 107.406738,291.260651 107.406738,287.700317 
	C103.414566,292.260406 102.049667,296.286469 103.197685,301.081512 
	C103.777641,303.503876 104.825272,305.829254 105.252609,308.270081 
	C106.137054,313.321686 103.897385,315.445831 99.152069,313.565399 
	C96.345314,312.453156 93.504486,310.406952 91.685143,308.015289 
	C86.345505,300.996155 78.891815,296.977020 71.557274,292.744568 
	C66.902000,290.058228 65.764542,290.459656 62.527241,295.433655 
	C55.124603,290.231079 47.726101,285.031433 39.120178,278.983185 
	C39.404385,282.274872 39.571316,284.208313 39.813721,287.015808 
	C35.196213,287.778809 30.371693,288.702667 25.505997,289.278778 
	C24.467833,289.401703 22.559427,288.463318 22.332638,287.654724 
	C22.004570,286.484985 22.455460,284.675537 23.252127,283.683563 
	C26.973677,279.049652 30.928055,274.602692 35.008156,269.845306 
	C36.282249,270.559723 37.998665,271.522186 40.227783,272.769592 
	C41.327229,273.097168 41.913967,273.139801 42.500710,273.182404 
	C42.326042,272.611786 42.151375,272.041199 41.976707,271.470581 
	C38.399612,266.356323 33.718414,263.630402 27.248236,263.913391 
	C22.618078,264.115906 17.915474,264.015198 13.338360,263.379242 
	C11.623391,263.140961 9.787345,261.235992 8.814632,259.608063 
	C8.486355,259.058655 10.388778,256.630371 11.723163,255.729431 
	C17.081713,252.111435 22.617224,248.755508 28.013029,245.349625 
	C30.903664,247.545502 33.586548,249.583572 36.269436,251.621628 
	C36.800537,251.206497 37.331642,250.791367 37.862747,250.376236 
	C36.274097,247.712997 35.175209,244.523834 32.996132,242.494659 
	C28.275814,238.099030 23.019287,234.276031 17.946245,230.264114 
	C16.256248,228.927612 14.233185,227.940048 12.780916,226.398636 
	C11.678994,225.229080 11.240397,223.434555 10.506651,221.918121 
	C12.259744,221.329987 14.004886,220.299728 15.767981,220.268021 
	C17.871174,220.230209 20.107353,220.754608 22.081337,221.545853 
	C30.692335,224.997452 39.469299,228.157364 47.734249,232.320099 
	C59.005814,237.997192 69.723488,244.770218 80.966576,250.509308 
	C86.227066,253.194534 92.122932,254.685562 97.816101,256.441345 
	C99.484398,256.955841 101.445641,256.520508 103.272614,256.520508 
	C103.403839,255.899368 103.535065,255.278229 103.666283,254.657104 
	C101.709015,253.768875 99.751747,252.880661 97.200928,251.675842 
	C96.659401,250.881927 96.711433,250.404617 96.763466,249.927292 
	C110.116516,238.890594 125.076363,229.842987 135.163651,214.907242 
	C139.660172,208.249451 147.183105,203.635620 153.648117,197.959351 
	C155.300842,199.955185 156.637909,202.085800 157.631134,204.690857 
	C153.806320,207.684631 150.264038,210.124603 146.866272,212.751495 
	C144.652969,214.462662 142.998917,216.627563 145.096573,219.471497 
	C146.981964,222.027664 149.458679,222.266541 152.007904,220.465012 
	C155.791199,217.791397 159.499054,215.011017 163.239014,212.276093 
	C165.962540,214.544754 168.783249,216.707321 171.394470,219.098618 
	C195.981812,241.614792 233.081573,246.146454 263.641174,230.492798 
	C266.570496,234.433563 269.030304,238.086990 271.490112,241.740417 
	C237.247192,259.311615 203.004272,276.882782 168.377655,294.503448 
M172.179642,270.085297 
	C171.888641,270.575073 171.574722,271.054718 171.345993,271.572052 
	C171.325638,271.618103 171.858994,271.909027 172.135178,272.086212 
	C172.426971,271.592896 172.718765,271.099579 172.179642,270.085297 
z" data-index="50" style="opacity: 1;"></path>
<path fill="#FCFCFC" opacity="1.000000" stroke="none" d="
M389.343323,247.412445 
	C394.150879,247.429169 398.578003,247.429169 403.231995,247.429169 
	C402.988586,248.644943 402.713379,250.019363 402.278656,252.190582 
	C406.619965,250.692841 410.579010,249.674774 414.236572,247.998810 
	C424.524719,243.284622 434.674988,238.270386 444.908630,233.435989 
	C448.966583,231.519012 452.986237,229.400528 457.239197,228.057083 
	C460.329803,227.080795 463.859619,226.622192 467.034943,227.066528 
	C469.515472,227.413666 471.752167,229.502991 474.097229,230.818176 
	C472.698303,232.745728 471.676971,235.203629 469.837921,236.513138 
	C459.335693,243.991455 449.200134,251.786011 442.396393,263.055511 
	C439.406982,268.007080 439.824829,272.848083 444.016144,277.021545 
	C444.527557,274.472107 444.956238,272.335144 445.591919,269.166168 
	C457.290009,272.407623 469.000336,275.399597 480.510956,279.025574 
	C483.278015,279.897217 485.784424,282.552216 487.699921,284.953918 
	C490.795898,288.835876 489.492188,292.376984 484.589996,292.691071 
	C479.523926,293.015656 474.257477,292.522797 469.283783,291.442902 
	C461.593994,289.773346 454.121063,289.474884 446.646423,292.078430 
	C445.106842,292.614685 443.629425,293.329498 441.045624,294.414581 
	C444.456787,297.223145 447.352936,299.327850 449.914642,301.781738 
	C453.858185,305.559357 457.783020,309.401306 461.264618,313.590942 
	C462.419189,314.980316 462.183502,317.525024 462.583405,319.541534 
	C460.407074,319.943726 457.983673,321.154083 456.105896,320.579926 
	C452.195404,319.384277 448.386292,317.549561 444.888092,315.402924 
	C441.649536,313.415649 438.660004,310.895508 435.928101,308.233154 
	C427.246338,299.772369 417.648010,298.753448 406.480194,302.932800 
	C401.062653,304.960205 394.877380,304.944031 389.032776,305.805878 
	C388.616821,305.867188 388.143524,305.539764 387.107269,305.199554 
	C390.888977,302.684631 394.300507,300.415924 397.712036,298.147217 
	C397.432098,297.653259 397.152191,297.159332 396.872253,296.665375 
	C392.312836,298.442688 387.789307,300.319702 383.186707,301.977142 
	C372.799469,305.717712 362.281494,308.864166 351.023804,307.918060 
	C349.703033,307.807037 348.364166,307.670654 347.085236,307.344116 
	C341.287964,305.864197 339.268799,302.255463 342.564850,297.432892 
	C346.065643,292.310730 350.651550,287.917053 354.873749,283.306122 
	C357.309753,280.645905 359.963470,278.185120 362.519196,275.634552 
	C361.952118,274.960785 361.385040,274.287018 360.817963,273.613251 
	C358.487305,275.258057 356.156677,276.902893 353.345215,278.887054 
	C350.816498,276.223633 348.111084,273.374054 345.242310,270.233032 
	C359.706940,262.426239 374.334900,254.910980 389.343323,247.412445 
z" data-index="51"></path>
<path fill="#FDFCFC" opacity="1.000000" stroke="none" d="
M271.932892,224.934464 
	C274.570190,222.667679 277.207489,220.400879 280.263733,217.623474 
	C286.664490,208.911652 292.739227,200.775253 298.547729,192.453064 
	C299.674591,190.838547 300.054352,188.529938 300.267731,186.488083 
	C300.657166,182.762070 302.773956,182.592957 305.593872,183.435059 
	C307.421295,183.980743 309.306702,184.418030 311.033264,185.197983 
	C314.732208,186.868958 317.830627,185.235550 318.061829,182.013168 
	C318.258850,179.267197 316.292053,176.067780 312.081512,175.867081 
	C309.378723,175.738235 306.723511,174.610580 304.073853,173.525330 
	C304.603394,171.646530 305.106049,170.173050 305.537231,168.909088 
	C329.106873,168.883621 349.619141,175.473938 365.660950,193.073013 
	C352.264313,200.092758 338.892090,207.159576 325.464539,214.119659 
	C310.689240,221.778351 295.863129,229.338913 280.553467,236.877716 
	C277.342804,232.853622 274.637848,228.894043 271.932892,224.934464 
z" data-index="52" style="opacity: 1;"></path>
<path fill="#090708" opacity="1.000000" stroke="none" d="
M201.561356,343.791138 
	C217.306030,357.335236 236.067490,364.409607 255.333817,369.763336 
	C269.533508,373.709167 284.311584,375.574890 298.834137,378.356049 
	C301.388733,378.845245 303.954163,379.278015 306.514587,379.736816 
	C306.544250,380.258026 306.573914,380.779205 306.603607,381.300385 
	C304.060669,381.583862 301.513458,382.145874 298.975433,382.107239 
	C276.548218,381.765717 255.173721,376.190277 234.209106,368.750000 
	C228.255478,366.637054 222.433762,364.152374 217.237244,362.107971 
	C209.912949,368.850830 202.747711,375.447205 195.386963,382.326477 
	C194.250992,382.627350 192.882950,383.060699 192.435394,382.599976 
	C187.231812,377.242767 182.151871,371.764862 177.073486,366.287109 
	C175.174088,364.238312 173.364044,362.106659 170.833328,359.243561 
	C181.313568,353.939911 191.258102,348.907379 201.561356,343.791138 
M204.661514,369.374115 
	C204.586594,369.117432 204.511688,368.860779 204.436783,368.604095 
	C204.150940,368.883301 203.865097,369.162537 203.579269,369.441742 
	C203.834351,369.522736 204.089432,369.603699 204.661514,369.374115 
M207.177673,366.757233 
	C207.121735,366.587860 207.065796,366.418457 207.009872,366.249084 
	C206.954681,366.420105 206.899475,366.591125 207.177673,366.757233 
z" data-index="53"></path>
<path fill="#060403" opacity="1.000000" stroke="none" d="
M365.984558,193.009567 
	C349.619141,175.473938 329.106873,168.883621 305.537231,168.909088 
	C305.106049,170.173050 304.603394,171.646530 303.911499,173.847626 
	C302.656494,175.829239 303.209167,179.946899 299.687592,176.855423 
	C300.381683,174.165009 301.075745,171.474579 302.128845,168.171844 
	C302.612091,165.976334 302.736298,164.393173 302.860535,162.809998 
	C302.589478,156.194702 302.318451,149.579422 302.362091,142.495026 
	C303.054535,142.025726 303.432251,142.025543 303.809998,142.025360 
	C305.240662,142.720291 306.603149,143.674194 308.112152,144.071609 
	C334.216064,150.946213 356.482666,164.174271 374.717468,184.118439 
	C375.490417,184.963806 376.177246,185.887863 377.456757,187.449814 
	C373.536621,189.382477 369.922394,191.164307 365.984558,193.009567 
M352.897766,174.691696 
	C352.801605,174.644272 352.705444,174.596848 352.609283,174.549438 
	C352.733978,174.704071 352.858673,174.858704 353.233215,175.433884 
	C353.597717,175.415710 353.962189,175.397522 354.326691,175.379349 
	C353.888977,175.247192 353.451263,175.115021 352.897766,174.691696 
M349.238708,173.438354 
	C349.603424,173.419067 349.968140,173.399780 350.332855,173.380493 
	C349.896912,173.245331 349.460968,173.110168 348.730499,172.393478 
	C347.822083,171.930344 346.913635,171.467224 346.005219,171.004089 
	C345.849854,171.416000 345.694458,171.827927 345.539093,172.239853 
	C346.687439,172.500717 347.835815,172.761581 349.238708,173.438354 
M335.854858,168.983170 
	C337.571075,169.345932 339.287262,169.708694 341.003479,170.071457 
	C341.090057,169.720276 341.176636,169.369110 341.263214,169.017944 
	C339.142792,168.471695 337.022339,167.925446 334.901917,167.379196 
	C334.991821,167.873215 335.081726,168.367218 335.854858,168.983170 
M331.812958,167.222733 
	C331.872650,167.399612 331.932312,167.576477 331.991974,167.753357 
	C332.049255,167.575211 332.106506,167.397064 331.812958,167.222733 
M343.518951,170.398132 
	C343.518951,170.398132 343.602936,170.526276 343.518951,170.398132 
z" data-index="54" style="opacity: 1;"></path>
<path fill="#372A2E" opacity="1.000000" stroke="none" d="
M271.581848,224.971252 
	C274.637848,228.894043 277.342804,232.853622 280.211121,237.072723 
	C281.813934,240.321671 280.773407,243.033264 278.076447,243.952988 
	C276.516663,244.484924 274.181488,242.743164 271.842712,241.882538 
	C269.030304,238.086990 266.570496,234.433563 263.990967,230.454956 
	C266.324432,228.422501 268.777588,226.715271 271.581848,224.971252 
z" data-index="55"></path>
<path fill="#381C1B" opacity="1.000000" stroke="none" d="
M296.409363,120.201523 
	C294.128448,117.744972 292.174469,115.138313 290.108826,112.192291 
	C291.730988,111.105431 293.576447,110.541512 295.174133,109.570099 
	C298.014099,107.843376 300.731415,106.957092 302.971680,110.204559 
	C305.328186,113.620514 302.901794,115.721680 300.485687,117.631821 
	C299.324219,118.550056 297.991486,119.251694 296.409363,120.201523 
z" data-index="56" style="opacity: 1;"></path>
<path fill="#241616" opacity="1.000000" stroke="none" d="
M303.853088,141.645294 
	C303.432251,142.025543 303.054535,142.025726 302.394714,142.034592 
	C301.259521,138.454987 300.406433,134.866684 299.785095,131.038452 
	C301.309998,134.287415 302.603088,137.776321 303.853088,141.645294 
z" data-index="57"></path>
<path fill="#111010" opacity="1.000000" stroke="none" d="
M109.269943,313.804932 
	C109.097931,312.608185 109.168228,311.123993 109.452797,309.346863 
	C109.615463,310.541748 109.563858,312.029633 109.269943,313.804932 
z" data-index="58"></path>
<path fill="#111010" opacity="1.000000" stroke="none" d="
M116.325356,297.015015 
	C116.750992,296.653534 117.499634,296.304474 118.578568,295.953369 
	C118.155365,296.310028 117.401863,296.668732 116.325356,297.015015 
z" data-index="59"></path>
<path fill="#111010" opacity="1.000000" stroke="none" d="
M110.319183,298.949677 
	C110.766983,298.612091 111.542274,298.290192 112.652344,297.974945 
	C112.206970,298.309509 111.426826,298.637421 110.319183,298.949677 
z" data-index="60"></path>
<path fill="#111010" opacity="1.000000" stroke="none" d="
M99.366837,318.712341 
	C99.629707,318.555664 100.195305,318.551361 100.886169,318.757629 
	C100.564148,318.933685 100.116859,318.899200 99.366837,318.712341 
z" data-index="61"></path>
<path fill="#111010" opacity="1.000000" stroke="none" d="
M96.342422,318.069458 
	C96.325699,317.929504 96.606987,318.047943 96.674370,318.076721 
	C96.741753,318.105499 96.601326,318.343872 96.601326,318.343872 
	C96.601326,318.343872 96.359146,318.209412 96.342422,318.069458 
z" data-index="62"></path>
<path fill="#111010" opacity="1.000000" stroke="none" d="
M109.393814,306.689301 
	C109.172325,306.689545 109.074074,306.484802 109.027542,306.078827 
	C109.264221,306.038391 109.410149,306.240631 109.393814,306.689301 
z" data-index="63"></path>
<path fill="#111010" opacity="1.000000" stroke="none" d="
M108.619156,303.742645 
	C108.341026,303.796997 108.169762,303.550873 108.084976,303.005981 
	C108.352699,302.949310 108.537560,303.194275 108.619156,303.742645 
z" data-index="64"></path>
<path fill="#111010" opacity="1.000000" stroke="none" d="
M107.864243,301.762695 
	C107.713676,301.780457 107.550804,301.533112 107.494926,301.157532 
	C107.685249,301.185425 107.768593,301.341492 107.864243,301.762695 
z" data-index="65"></path>
<path fill="#111010" opacity="1.000000" stroke="none" d="
M108.213539,299.764038 
	C108.220726,299.592041 108.478470,299.368652 108.998184,299.116943 
	C108.994812,299.296631 108.729454,299.504639 108.213539,299.764038 
z" data-index="66"></path>
<path fill="#111010" opacity="1.000000" stroke="none" d="
M115.275192,297.434692 
	C115.249931,297.220886 115.439537,297.103973 115.832657,297.022766 
	C115.898781,297.251862 115.716751,297.409576 115.275192,297.434692 
z" data-index="67"></path>
<path fill="#111010" opacity="1.000000" stroke="none" d="
M120.231354,295.548615 
	C120.170403,295.328949 120.359604,295.169922 120.782135,295.025513 
	C120.873573,295.251068 120.695587,295.440796 120.231354,295.548615 
z" data-index="68"></path>
<path fill="#E53E27" opacity="1.000000" stroke="none" d="
M192.094070,93.458450 
	C198.080154,95.753479 204.088104,98.413643 210.468384,101.107269 
	C216.189316,102.554596 221.537933,103.968460 227.285080,105.458008 
	C236.835083,107.005219 245.986526,108.476746 255.562271,110.006256 
	C257.448212,112.942909 259.429413,115.675972 260.283875,118.724800 
	C264.566193,134.004684 261.308472,147.705948 250.812027,159.597061 
	C249.813919,160.727798 248.082718,161.211411 246.524460,161.694321 
	C248.643387,158.582062 249.320938,155.191025 246.251205,153.137680 
	C244.193268,151.761124 240.350204,151.279327 238.264893,152.319580 
	C236.788269,153.056198 236.125107,157.136490 236.509338,159.494354 
	C237.105957,163.155533 240.722610,163.852280 246.025162,161.957443 
	C244.435226,163.931244 243.236496,166.649048 241.177887,167.731476 
	C236.144119,170.378296 230.712891,172.269180 224.975769,174.731201 
	C224.509918,174.998062 224.024155,174.962936 224.023529,174.551636 
	C223.989166,172.770203 223.955414,171.400055 223.971802,169.590454 
	C224.224380,166.060394 224.426834,162.969788 224.629303,159.879181 
	C224.282532,159.807434 223.935760,159.735672 223.589005,159.663925 
	C223.012878,163.079361 222.436768,166.494781 221.624298,170.162766 
	C220.593704,172.309280 219.799454,174.203232 219.005188,176.097198 
	C215.154724,175.250565 211.304276,174.403946 207.397217,173.006226 
	C209.419418,169.562744 212.164291,166.935745 213.443573,163.724838 
	C216.461166,156.150940 209.250854,146.154419 201.121918,146.008484 
	C191.785553,145.840897 187.548035,149.308868 185.005493,159.198044 
	C179.272446,152.461746 173.909271,145.565018 175.315247,135.458191 
	C177.968353,134.308868 180.931534,134.285355 182.324646,132.794601 
	C187.559128,127.193245 184.793396,121.752220 176.079880,119.886047 
	C177.007584,110.169846 183.834961,103.979683 189.633057,97.167191 
	C190.530823,96.112343 191.291748,94.941032 192.094070,93.458450 
M227.051300,122.142288 
	C228.816345,116.477478 227.461044,112.532478 222.666306,109.378593 
	C219.299072,107.163689 213.274902,107.636162 210.148697,110.360352 
	C206.767746,113.306503 206.204453,117.720680 208.503632,123.029739 
	C208.762192,123.626823 208.885696,124.282372 208.370743,125.042564 
	C207.357132,126.285393 205.780853,127.389740 205.434555,128.796799 
	C204.361969,133.154633 207.400452,139.381500 211.399643,141.906143 
	C215.534409,144.516388 221.758362,144.275482 225.677567,141.353500 
	C232.254517,136.450027 232.842651,127.780861 227.051300,122.142288 
M225.404266,157.490219 
	C225.404266,157.490219 225.519104,157.412781 225.404266,157.490219 
z" data-index="69" style="opacity: 1;"></path>
<path fill="#5F0A0E" opacity="1.000000" stroke="none" d="
M263.950928,168.646545 
	C270.531738,165.895325 276.572418,165.925308 281.936737,170.489090 
	C286.335724,174.231567 288.073364,179.043396 286.579529,184.755966 
	C285.048187,190.611862 278.224243,195.923965 272.287476,196.005356 
	C265.318298,196.100906 259.538330,192.114685 257.416321,185.749268 
	C255.408264,179.725647 257.959839,172.810928 263.950928,168.646545 
z" data-index="70"></path>
<path fill="#68170F" opacity="1.000000" stroke="none" d="
M185.020035,159.588791 
	C187.548035,149.308868 191.785553,145.840897 201.121918,146.008484 
	C209.250854,146.154419 216.461166,156.150940 213.443573,163.724838 
	C212.164291,166.935745 209.419418,169.562744 207.121460,172.720917 
	C193.928314,176.607132 185.652222,171.684402 185.020035,159.588791 
z" data-index="71"></path>
<path fill="#392E31" opacity="1.000000" stroke="none" d="
M299.359558,176.977325 
	C303.209167,179.946899 302.656494,175.829239 303.884583,174.252960 
	C306.723511,174.610580 309.378723,175.738235 312.081512,175.867081 
	C316.292053,176.067780 318.258850,179.267197 318.061829,182.013168 
	C317.830627,185.235550 314.732208,186.868958 311.033264,185.197983 
	C309.306702,184.418030 307.421295,183.980743 305.593872,183.435059 
	C302.773956,182.592957 300.657166,182.762070 300.267731,186.488083 
	C300.054352,188.529938 299.674591,190.838547 298.547729,192.453064 
	C292.739227,200.775253 286.664490,208.911652 280.398865,217.340454 
	C278.630737,216.769913 277.146423,215.971802 275.083099,214.862335 
	C285.461456,203.888184 294.336273,191.775604 299.359558,176.977325 
z" data-index="72" style="opacity: 1;"></path>
<path fill="#6E070D" opacity="1.000000" stroke="none" d="
M278.197632,114.216339 
	C282.752350,116.527176 286.357971,119.327568 285.922150,124.580704 
	C285.502777,129.635223 281.954681,132.303894 277.481628,134.037750 
	C273.331726,135.646347 269.749512,134.229507 267.115997,131.384064 
	C264.372467,128.419739 262.871460,124.700516 264.780243,120.371460 
	C266.556580,116.342827 269.082703,113.695511 273.818176,113.986275 
	C275.145905,114.067802 276.479004,114.061302 278.197632,114.216339 
z" data-index="73"></path>
<path fill="#640B10" opacity="1.000000" stroke="none" d="
M186.461731,193.013229 
	C183.034195,195.580765 179.997971,199.143005 176.477081,199.713409 
	C169.936539,200.772964 166.015137,196.292892 165.993164,189.613373 
	C165.970825,182.823624 169.591217,179.093124 176.297836,178.995346 
	C182.182602,178.909531 186.960663,183.675217 186.987106,189.715088 
	C186.991394,190.695526 186.757935,191.677017 186.461731,193.013229 
z" data-index="74" style="opacity: 1;"></path>
<path fill="#6C292A" opacity="1.000000" stroke="none" d="
M223.921677,170.029907 
	C223.955414,171.400055 223.989166,172.770203 224.002243,174.821106 
	C223.982758,175.681839 223.983948,175.861801 223.985123,176.041779 
	C222.961853,185.191437 222.422028,194.432159 220.722290,203.454376 
	C219.798218,208.359344 215.917923,203.622055 212.289337,205.329056 
	C214.688690,194.999374 216.796494,185.924820 218.954742,176.473724 
	C219.799454,174.203232 220.593704,172.309280 221.968750,170.191437 
	C223.006897,169.988327 223.464294,170.009109 223.921677,170.029907 
z" data-index="75"></path>
<path fill="#74120F" opacity="1.000000" stroke="none" d="
M175.715302,119.956726 
	C184.793396,121.752220 187.559128,127.193245 182.324646,132.794601 
	C180.931534,134.285355 177.968353,134.308868 175.298248,135.007080 
	C167.757690,130.827545 167.963974,124.392952 175.715302,119.956726 
z" data-index="76"></path>
<path fill="#302624" opacity="1.000000" stroke="none" d="
M163.184998,211.909515 
	C159.499054,215.011017 155.791199,217.791397 152.007904,220.465012 
	C149.458679,222.266541 146.981964,222.027664 145.096573,219.471497 
	C142.998917,216.627563 144.652969,214.462662 146.866272,212.751495 
	C150.264038,210.124603 153.806320,207.684631 157.606033,205.041046 
	C159.660202,207.125473 161.395599,209.334183 163.184998,211.909515 
z" data-index="77" style="opacity: 1;"></path>
<path fill="#6A1115" opacity="1.000000" stroke="none" d="
M248.833771,214.635712 
	C245.959427,215.728302 243.322983,217.168777 240.739792,217.078903 
	C239.445053,217.033829 237.181778,214.148941 237.254700,212.640137 
	C237.364960,210.358475 238.622314,206.967224 240.331223,206.232986 
	C242.313324,205.381363 245.602905,206.347336 247.791748,207.519730 
	C250.396179,208.914764 250.830261,211.649933 248.833771,214.635712 
z" data-index="78"></path>
<path fill="#241616" opacity="1.000000" stroke="none" d="
M302.533752,162.935013 
	C302.736298,164.393173 302.612091,165.976334 302.169861,167.797882 
	C301.970184,166.377502 302.088593,164.718765 302.533752,162.935013 
z" data-index="79"></path>
<path fill="#8B2E28" opacity="1.000000" stroke="none" d="
M224.206329,175.932373 
	C223.983948,175.861801 223.982758,175.681839 224.002869,175.232391 
	C224.024155,174.962936 224.509918,174.998062 224.752563,175.017746 
	C224.898132,175.365845 224.708908,175.627701 224.206329,175.932373 
z" data-index="80"></path>
<path fill="#362C2C" opacity="1.000000" stroke="none" d="
M148.879044,147.785675 
	C148.690460,147.875610 148.522827,147.697998 148.415497,147.489334 
	C148.381195,147.422653 148.506760,147.273743 148.708038,147.053146 
	C148.879059,147.131256 148.901215,147.318665 148.879044,147.785675 
z" data-index="81"></path>
<path fill="#4A4645" opacity="1.000000" stroke="none" d="
M247.998169,65.038460 
	C247.985245,75.780334 239.932770,83.195145 228.459900,82.903076 
	C221.281601,82.720329 212.836792,75.318504 212.744736,65.500305 
	C212.641556,54.493206 220.538635,48.107510 230.011993,48.015427 
	C241.110275,47.907551 247.918625,54.230457 247.998169,65.038460 
z" data-index="82" style="opacity: 1;"></path>
<path fill="#111010" opacity="1.000000" stroke="none" d="
M159.956329,283.739532 
	C159.796112,284.889160 159.613907,285.739349 159.431702,286.589508 
	C159.096756,286.511871 158.761826,286.434235 158.426880,286.356628 
	C158.718979,285.275818 159.004944,284.193268 159.317612,283.118469 
	C159.337372,283.050537 159.617310,282.972900 159.684418,283.022949 
	C159.804596,283.112518 159.854858,283.295898 159.956329,283.739532 
z" data-index="83"></path>
<path fill="#111010" opacity="1.000000" stroke="none" d="
M163.094925,296.063232 
	C162.588318,295.565979 162.018066,295.013092 161.447815,294.460236 
	C161.812073,294.222534 162.176346,293.984863 162.540619,293.747192 
	C162.706573,294.334076 162.872528,294.920959 163.078384,295.829895 
	C163.118286,296.151917 163.031281,296.007599 163.094925,296.063232 
z" data-index="84"></path>
<path fill="#111010" opacity="1.000000" stroke="none" d="
M96.466705,249.972229 
	C96.711433,250.404617 96.659401,250.881927 96.819794,251.673172 
	C96.744781,251.330444 96.457359,250.673813 96.466705,249.972229 
z" data-index="85"></path>
<path fill="#111010" opacity="1.000000" stroke="none" d="
M158.551941,278.254242 
	C158.194290,278.078522 157.985046,277.750763 157.775803,277.423004 
	C158.083984,277.649414 158.392166,277.875824 158.551941,278.254242 
z" data-index="86"></path>
<path fill="#111010" opacity="1.000000" stroke="none" d="
M123.513000,223.947311 
	C123.372520,223.772980 123.483521,223.569672 123.878204,223.377228 
	C123.960770,223.535843 123.828308,223.712601 123.513000,223.947311 
z" data-index="87"></path>
<path fill="#111010" opacity="1.000000" stroke="none" d="
M92.560135,247.984619 
	C92.356255,247.811447 92.411179,247.641464 92.780121,247.593323 
	C92.916969,247.657394 92.641785,247.930069 92.560135,247.984619 
z" data-index="88"></path>
<path fill="#111010" opacity="1.000000" stroke="none" d="
M124.450615,222.943481 
	C124.286987,222.747498 124.410995,222.510834 124.854561,222.269470 
	C124.959961,222.450150 124.814674,222.662827 124.450615,222.943481 
z" data-index="89"></path>
<path fill="#111010" opacity="1.000000" stroke="none" d="
M103.411255,239.965088 
	C103.272392,239.765823 103.410919,239.544037 103.856049,239.339920 
	C103.943565,239.523727 103.785561,239.718735 103.411255,239.965088 
z" data-index="90"></path>
<path fill="#111010" opacity="1.000000" stroke="none" d="
M122.489624,224.960907 
	C122.354408,224.783524 122.468849,224.585541 122.864960,224.410522 
	C122.943024,224.572388 122.807228,224.741318 122.489624,224.960907 
z" data-index="91"></path>
<path fill="#111010" opacity="1.000000" stroke="none" d="
M121.375580,225.965210 
	C121.245094,225.759842 121.392624,225.542007 121.844711,225.352936 
	C121.930099,225.545517 121.764877,225.735870 121.375580,225.965210 
z" data-index="92"></path>
<path fill="#111010" opacity="1.000000" stroke="none" d="
M104.447922,238.984604 
	C104.315857,238.805832 104.426620,238.620819 104.813538,238.482605 
	C104.885414,238.647217 104.752434,238.796860 104.447922,238.984604 
z" data-index="93"></path>
<path fill="#111010" opacity="1.000000" stroke="none" d="
M102.366463,240.952728 
	C102.226433,240.741241 102.377945,240.506973 102.847496,240.287369 
	C102.943428,240.486435 102.774254,240.695740 102.366463,240.952728 
z" data-index="94"></path>
<path fill="#030101" opacity="1.000000" stroke="none" d="
M41.568642,271.751709 
	C42.151375,272.041199 42.326042,272.611786 42.500710,273.182404 
	C41.913967,273.139801 41.327229,273.097168 40.573963,272.865814 
	C40.658482,272.462341 40.909527,272.247620 41.568642,271.751709 
z" data-index="95"></path>
<path fill="#111010" opacity="1.000000" stroke="none" d="
M172.595093,270.345764 
	C172.718765,271.099579 172.426971,271.592896 172.135193,272.086212 
	C171.858994,271.909027 171.325638,271.618103 171.345993,271.572052 
	C171.574722,271.054718 171.888641,270.575073 172.595093,270.345764 
z" data-index="96"></path>
<path fill="#131111" opacity="1.000000" stroke="none" d="
M204.503021,369.529388 
	C204.089432,369.603699 203.834351,369.522736 203.579269,369.441742 
	C203.865097,369.162537 204.150940,368.883301 204.436783,368.604095 
	C204.511688,368.860779 204.586594,369.117432 204.503021,369.529388 
z" data-index="97"></path>
<path fill="#131111" opacity="1.000000" stroke="none" d="
M207.010986,366.759705 
	C206.899475,366.591125 206.954681,366.420105 207.009857,366.249084 
	C207.065796,366.418457 207.121735,366.587860 207.010986,366.759705 
z" data-index="98"></path>
<path fill="#181818" opacity="1.000000" stroke="none" d="
M335.513245,168.922211 
	C335.081726,168.367218 334.991821,167.873215 334.901917,167.379196 
	C337.022339,167.925446 339.142792,168.471695 341.263214,169.017944 
	C341.176636,169.369110 341.090057,169.720276 341.003479,170.071457 
	C339.287262,169.708694 337.571075,169.345932 335.513245,168.922211 
z" data-index="99"></path>
<path fill="#181818" opacity="1.000000" stroke="none" d="
M348.984192,173.022446 
	C347.835815,172.761581 346.687439,172.500717 345.539093,172.239853 
	C345.694458,171.827927 345.849854,171.416000 346.005219,171.004089 
	C346.913635,171.467224 347.822083,171.930344 348.866608,172.695450 
	C349.002716,172.997421 348.984192,173.022446 348.984192,173.022446 
z" data-index="100"></path>
<path fill="#181818" opacity="1.000000" stroke="none" d="
M349.013855,172.986206 
	C349.460968,173.110168 349.896912,173.245331 350.332855,173.380493 
	C349.968140,173.399780 349.603424,173.419067 349.111450,173.230408 
	C348.984192,173.022446 349.002716,172.997421 349.013855,172.986206 
z" data-index="101"></path>
<path fill="#181818" opacity="1.000000" stroke="none" d="
M331.988342,167.220825 
	C332.106506,167.397064 332.049255,167.575211 331.991974,167.753357 
	C331.932312,167.576477 331.872650,167.399612 331.988342,167.220825 
z" data-index="102"></path>
<path fill="#181818" opacity="1.000000" stroke="none" d="
M353.013550,174.982864 
	C353.451263,175.115021 353.888977,175.247192 354.326691,175.379333 
	C353.962189,175.397522 353.597717,175.415710 353.116608,175.216812 
	C353.000000,174.999741 353.013550,174.982864 353.013550,174.982864 
z" data-index="103"></path>
<path fill="#181818" opacity="1.000000" stroke="none" d="
M343.560944,170.462204 
	C343.602936,170.526276 343.518951,170.398132 343.560944,170.462204 
z" data-index="104"></path>
<path fill="#181818" opacity="1.000000" stroke="none" d="
M352.991699,175.006531 
	C352.858673,174.858704 352.733978,174.704071 352.609283,174.549438 
	C352.705444,174.596848 352.801605,174.644272 352.955658,174.837280 
	C353.013550,174.982864 353.000000,174.999741 352.991699,175.006531 
z" data-index="105"></path>
<path fill="#E8603B" opacity="1.000000" stroke="none" d="
M226.928741,122.910904 
	C232.842651,127.780861 232.254517,136.450027 225.677567,141.353500 
	C221.758362,144.275482 215.534409,144.516388 211.399643,141.906143 
	C207.400452,139.381500 204.361969,133.154633 205.434555,128.796799 
	C205.780853,127.389740 207.357132,126.285393 209.025726,125.172104 
	C215.992889,129.848114 219.411102,129.374313 226.928741,122.910904 
z" data-index="106" style="opacity: 1;"></path>
<path fill="#712A19" opacity="1.000000" stroke="none" d="
M226.990021,122.526596 
	C219.411102,129.374313 215.992889,129.848114 209.376282,125.106232 
	C208.885696,124.282372 208.762192,123.626823 208.503632,123.029739 
	C206.204453,117.720680 206.767746,113.306503 210.148697,110.360352 
	C213.274902,107.636162 219.299072,107.163689 222.666306,109.378593 
	C227.461044,112.532478 228.816345,116.477478 226.990021,122.526596 
z" data-index="107"></path>
<path fill="#7D1E12" opacity="1.000000" stroke="none" d="
M246.011154,161.978149 
	C240.722610,163.852280 237.105957,163.155533 236.509338,159.494354 
	C236.125107,157.136490 236.788269,153.056198 238.264893,152.319580 
	C240.350204,151.279327 244.193268,151.761124 246.251205,153.137680 
	C249.320938,155.191025 248.643387,158.582062 246.156586,161.710327 
	C245.956085,162.027451 245.997147,161.998871 246.011154,161.978149 
z" data-index="108" style="opacity: 1;"></path>
<path fill="#8B2E28" opacity="1.000000" stroke="none" d="
M223.971802,169.590454 
	C223.464294,170.009109 223.006897,169.988327 222.205078,169.938873 
	C222.436768,166.494781 223.012878,163.079361 223.589005,159.663925 
	C223.935760,159.735672 224.282532,159.807434 224.629303,159.879181 
	C224.426834,162.969788 224.224380,166.060394 223.971802,169.590454 
z" data-index="109"></path>
<path fill="#8B2E28" opacity="1.000000" stroke="none" d="
M225.461685,157.451508 
	C225.519104,157.412781 225.404266,157.490219 225.461685,157.451508 
z" data-index="110"></path>
</svg>